HIERARCHY
ROOT Hips
{
	OFFSET 0.000000 0.000000 0.000000
	CHANNELS 6 Xposition Yposition Zposition Zrotation Yrotation Xrotation 
	JOINT LHipJoint
	{
		OFFSET 0.000000 0.000000 0.000000
		CHANNELS 3 Zrotation Yrotation Xrotation
		JOINT LeftUpLeg
		{
			OFFSET 1.363060 -1.794630 0.839290
			CHANNELS 3 Zrotation Yrotation Xrotation
			JOINT LeftLeg
			{
				OFFSET 2.448110 -6.726130 0.000000
				CHANNELS 3 Zrotation Yrotation Xrotation
				JOINT LeftFoot
				{
					OFFSET 2.562200 -7.039590 0.000000
					CHANNELS 3 Zrotation Yrotation Xrotation
					JOINT LeftToeBase
					{
						OFFSET 0.157640 -0.433110 2.322550
						CHANNELS 3 Zrotation Yrotation Xrotation
						End Site
						{
							OFFSET 0.000000 0.000000 0.000000
						}
					}
				}
			}
		}
	}
	JOINT RHipJoint
	{
		OFFSET 0.000000 0.000000 0.000000
		CHANNELS 3 Zrotation Yrotation Xrotation
		JOINT RightUpLeg
		{
			OFFSET -1.305520 -1.794630 0.839290
			CHANNELS 3 Zrotation Yrotation Xrotation
			JOINT RightLeg
			{
				OFFSET -2.542530 -6.985550 0.000000
				CHANNELS 3 Zrotation Yrotation Xrotation
				JOINT RightFoot
				{
					OFFSET -2.568260 -7.056230 0.000000
					CHANNELS 3 Zrotation Yrotation Xrotation
					JOINT RightToeBase
					{
						OFFSET -0.164730 -0.452590 2.363150
						CHANNELS 3 Zrotation Yrotation Xrotation
						End Site
						{
							OFFSET 0.000000 0.000000 0.000000
						}
					}
				}
			}
		}
	}
	JOINT LowerBack
	{
		OFFSET 0.000000 0.000000 0.000000
		CHANNELS 3 Zrotation Yrotation Xrotation
		JOINT Spine
		{
			OFFSET 0.028270 2.035590 -0.193380
			CHANNELS 3 Zrotation Yrotation Xrotation
			JOINT Spine1
			{
				OFFSET 0.056720 2.048850 -0.042750
				CHANNELS 3 Zrotation Yrotation Xrotation
				JOINT Neck
				{
					OFFSET 0.000000 0.000000 0.000000
					CHANNELS 3 Zrotation Yrotation Xrotation
					JOINT Neck1
					{
						OFFSET -0.054170 1.746240 0.172020
						CHANNELS 3 Zrotation Yrotation Xrotation
						JOINT Head
						{
							OFFSET 0.104070 1.761360 -0.123970
							CHANNELS 3 Zrotation Yrotation Xrotation
							End Site
							{
								OFFSET 0.000000 0.000000 0.000000
							}
						}
					}
				}
				JOINT LeftShoulder
				{
					OFFSET 0.000000 0.000000 0.000000
					CHANNELS 3 Zrotation Yrotation Xrotation
					JOINT LeftArm
					{
						OFFSET 3.362410 1.200890 -0.311210
						CHANNELS 3 Zrotation Yrotation Xrotation
						JOINT LeftForeArm
						{
							OFFSET 4.983000 -0.000000 -0.000000
							CHANNELS 3 Zrotation Yrotation Xrotation
							JOINT LeftHand
							{
								OFFSET 3.483560 -0.000000 -0.000000
								CHANNELS 3 Zrotation Yrotation Xrotation
								JOINT LeftFingerBase
								{
									OFFSET 0.000000 0.000000 0.000000
									CHANNELS 3 Zrotation Yrotation Xrotation
									JOINT LeftHandIndex1
									{
										OFFSET 0.715260 -0.000000 -0.000000
										CHANNELS 3 Zrotation Yrotation Xrotation
										End Site
										{
											OFFSET 0.000000 0.000000 0.000000
										}
									}
								}
								JOINT LThumb
								{
									OFFSET 0.000000 0.000000 0.000000
									CHANNELS 3 Zrotation Yrotation Xrotation
									End Site
									{
										OFFSET 0.000000 0.000000 0.000000
									}
								}
							}
						}
					}
				}
				JOINT RightShoulder
				{
					OFFSET 0.000000 0.000000 0.000000
					CHANNELS 3 Zrotation Yrotation Xrotation
					JOINT RightArm
					{
						OFFSET -3.136600 1.374050 -0.404650
						CHANNELS 3 Zrotation Yrotation Xrotation
						JOINT RightForeArm
						{
							OFFSET -5.241900 -0.000000 -0.000000
							CHANNELS 3 Zrotation Yrotation Xrotation
							JOINT RightHand
							{
								OFFSET -3.444170 -0.000000 -0.000000
								CHANNELS 3 Zrotation Yrotation Xrotation
								JOINT RightFingerBase
								{
									OFFSET 0.000000 0.000000 0.000000
									CHANNELS 3 Zrotation Yrotation Xrotation
									JOINT RightHandIndex1
									{
										OFFSET -0.622530 -0.000000 -0.000000
										CHANNELS 3 Zrotation Yrotation Xrotation
										End Site
										{
											OFFSET 0.000000 0.000000 0.000000
										}
									}
								}
								JOINT RThumb
								{
									OFFSET 0.000000 0.000000 0.000000
									CHANNELS 3 Zrotation Yrotation Xrotation
									End Site
									{
										OFFSET 0.000000 0.000000 0.000000
									}
								}
							}
						}
					}
				}
			}
		}
	}
}
MOTION
Frames: 9
Frame Time: 0.008333
0.081379 18.458098 0.886340 -2.788524 8.583420 10.237407 -1.222526 7.401385 3.903364 -8.138798 -24.834120 -11.238548 -1.037251 4.050198 15.417927 -5.978979 19.707212 6.583052 1.758400 -8.343700 -23.762900 0.422279 -7.744748 4.882934 19.216796 20.784796 -9.699568 2.222647 -2.607279 14.106777 4.954049 -22.351746 -20.412906 -2.037200 -8.943200 25.617800 1.006564 2.448078 -8.916409 1.121380 2.805380 9.393412 -0.588589 2.127162 -4.110196 -1.921398 -2.707890 -10.864171 -0.787065 -0.887423 32.982625 -1.393100 0.239800 8.232900 -10.812645 -3.125364 0.338622 -71.855670 16.116557 42.914839 52.763170 -53.233525 -26.602124 0.486844 0.778539 -4.670994 2.799359 25.713545 0.950800 -7.125000 0.000000 0.000000 -27.912700 52.728000 -5.663500 11.843976 6.583244 1.150104 74.365504 -8.780859 40.711774 -23.138721 27.345792 -4.456213 0.159370 0.584201 2.272940 7.027916 4.822274 0.510800 7.125000 0.000000 0.000000 24.636800 -25.476100 12.806600 
0.080263 18.457996 0.885224 -2.778283 8.476112 10.310344 -1.239423 7.379027 3.888146 -8.130144 -24.780962 -11.313771 -1.033163 4.065704 15.449276 -5.987592 19.731776 6.536290 1.739600 -8.301200 -23.632600 0.396374 -7.734599 4.856269 19.215284 20.759083 -9.778459 2.219544 -2.605581 14.089141 4.976383 -22.365211 -20.258158 -1.998600 -8.863100 25.368100 1.035829 2.506550 -8.810977 0.846264 2.883035 9.177324 -0.559744 2.151283 -4.180064 -1.726030 -2.713470 -10.929124 -0.776476 -0.901594 33.177791 -1.413000 0.252100 8.283200 -10.800360 -3.105415 0.353278 -71.791082 16.146399 42.907828 52.601104 -53.174487 -26.470587 0.485711 0.776102 -4.570568 2.744931 25.629378 0.926000 -7.125000 0.000000 0.000000 -27.908500 52.645900 -5.603800 11.879764 6.589969 1.165490 74.413387 -8.855004 40.790800 -23.180847 27.399157 -4.476545 0.163100 0.586595 2.196790 7.095426 4.803972 0.513000 7.125000 0.000000 0.000000 24.684300 -25.492900 12.825600 
0.078132 18.458402 0.884615 -2.726688 8.453696 10.345235 -1.254430 7.362164 3.875813 -8.165999 -24.745484 -11.353622 -1.030954 4.074173 15.474218 -5.984375 19.720969 6.497556 1.740800 -8.304000 -23.641300 0.375128 -7.730136 4.842105 19.181173 20.686669 -9.833404 2.215702 -2.608751 14.080969 5.004288 -22.390159 -20.101095 -1.970900 -8.805300 25.188000 0.981043 2.543625 -8.712841 0.625838 2.935485 9.029979 -0.498661 2.170407 -4.253834 -1.688169 -2.741387 -10.990133 -0.638558 -0.971702 33.367826 -1.384800 0.241500 8.331500 -10.783039 -3.094175 0.364444 -71.737467 16.124387 42.993788 52.402903 -53.100156 -26.311923 0.483833 0.782015 -4.472687 2.704071 25.689545 0.911700 -7.125000 0.000000 0.000000 -27.977600 52.686000 -5.648400 11.912408 6.589481 1.175854 74.458809 -8.920266 40.750676 -23.233125 27.467164 -4.502833 0.174251 0.594704 2.219142 7.277598 4.802600 0.524500 7.125000 0.000000 0.000000 24.803900 -25.496300 12.898700 
0.076711 18.458808 0.885528 -2.687748 8.520471 10.361180 -1.262516 7.353797 3.861828 -8.192147 -24.771012 -11.350838 -1.032389 4.071975 15.476742 -5.977929 19.694109 6.454253 1.715500 -8.246400 -23.465200 0.366119 -7.729433 4.834727 19.165287 20.633929 -9.855491 2.213025 -2.618112 14.095317 5.028241 -22.447081 -20.059954 -1.959500 -8.781200 25.113200 0.903051 2.544778 -8.620927 0.519931 2.940999 8.894794 -0.453743 2.170730 -4.314091 -1.837289 -2.752151 -10.920845 -0.355341 -1.063598 33.401152 -1.299500 0.222200 8.321800 -10.769143 -3.102111 0.373082 -71.762404 16.135402 43.015785 52.234400 -53.035619 -26.177183 0.486939 0.785734 -4.374421 2.740889 25.720651 0.927300 -7.125000 0.000000 0.000000 -27.962200 52.715600 -5.666100 11.942577 6.572993 1.183177 74.399338 -8.991685 40.902534 -23.306528 27.551293 -4.535335 0.178813 0.596844 2.041918 7.364730 4.759384 0.524800 7.125000 0.000000 0.000000 24.868500 -25.534600 12.914400 
0.076204 18.458706 0.886848 -2.680605 8.545703 10.357100 -1.273235 7.347282 3.858564 -8.190927 -24.752021 -11.343532 -1.033011 4.074369 15.481115 -5.964148 19.655087 6.463170 1.734000 -8.288600 -23.594200 0.352907 -7.731595 4.828588 19.184103 20.596340 -9.844716 2.212940 -2.616827 14.091823 5.028591 -22.440806 -20.033297 -1.964700 -8.792200 25.147300 0.910906 2.550329 -8.526285 0.358513 2.945881 8.793337 -0.444301 2.167475 -4.367238 -1.891450 -2.735997 -10.809609 -0.161730 -1.109311 33.330764 -1.247800 0.219000 8.282100 -10.751285 -3.110640 0.379536 -71.757823 16.173495 42.986951 52.129915 -52.996614 -26.092399 0.491452 0.778257 -4.298950 2.784927 25.554425 0.939000 -7.125000 0.000000 0.000000 -27.823800 52.582600 -5.539500 11.972370 6.558122 1.184610 74.368101 -9.042308 41.117215 -23.389814 27.643552 -4.570407 0.176911 0.593153 1.836162 7.341717 4.697427 0.515900 7.125000 0.000000 0.000000 24.864500 -25.588100 12.877000 
0.075291 18.458098 0.888471 -2.680085 8.592795 10.374494 -1.281228 7.340584 3.848254 -8.176032 -24.771575 -11.356935 -1.029315 4.080133 15.491774 -5.960904 19.654645 6.502240 1.766500 -8.361700 -23.818100 0.346752 -7.730069 4.826984 19.199369 20.536810 -9.856530 2.218020 -2.608687 14.071022 4.999861 -22.367732 -20.070264 -2.009600 -8.886100 25.439600 0.873287 2.524569 -8.505229 0.247256 2.912137 8.717548 -0.408459 2.147303 -4.379370 -1.872085 -2.706900 -10.745817 -0.056103 -1.109355 33.333173 -1.222000 0.233600 8.271600 -10.739348 -3.113198 0.383220 -71.816717 16.183244 42.838081 51.961413 -52.930790 -25.955780 0.484366 0.772697 -4.124873 2.571985 25.451513 0.850400 -7.125000 0.000000 0.000000 -27.949500 52.459100 -5.479400 11.992831 6.555237 1.188344 74.348222 -9.077884 41.322732 -23.460293 27.724650 -4.602050 0.181693 0.595497 1.747095 7.423745 4.663226 0.516800 7.125000 0.000000 0.000000 24.924500 -25.618800 12.894500 
0.073160 18.458098 0.888573 -2.706862 8.647337 10.378831 -1.283459 7.335191 3.837178 -8.124403 -24.795263 -11.382693 -1.024843 4.088104 15.502198 -5.952683 19.642583 6.566311 1.790900 -8.416300 -23.985800 0.345237 -7.727931 4.823182 19.246130 20.525380 -9.844022 2.223087 -2.601114 14.060114 4.972733 -22.323726 -20.163158 -2.021800 -8.911400 25.518400 0.834816 2.490841 -8.448469 0.185512 2.869699 8.638607 -0.379821 2.122918 -4.424666 -1.828579 -2.681352 -10.806357 0.048718 -1.099373 33.488094 -1.195900 0.258300 8.315600 -10.734047 -3.101570 0.387344 -71.896022 16.196392 42.706425 51.812208 -52.874089 -25.836872 0.482507 0.765807 -4.050896 2.488673 25.318903 0.812900 -7.125000 0.000000 0.000000 -27.944600 52.333500 -5.388200 12.008721 6.556879 1.198920 74.328314 -9.127060 41.477632 -23.516383 27.793270 -4.628884 0.185256 0.601566 1.729124 7.515896 4.691546 0.526000 7.125000 0.000000 0.000000 24.980500 -25.595400 12.945000 
0.069913 18.458402 0.888978 -2.768597 8.710950 10.390412 -1.281798 7.327917 3.826482 -8.029453 -24.801223 -11.433788 -1.018837 4.098120 15.505948 -5.937158 19.624624 6.712066 1.839700 -8.523900 -24.317100 0.338225 -7.722647 4.816883 19.350479 20.459263 -9.864977 2.221545 -2.598966 14.062019 4.998303 -22.399329 -20.125419 -1.968900 -8.800900 25.174400 0.831814 2.493847 -8.412660 0.121292 2.873874 8.569591 -0.363875 2.121302 -4.452758 -1.752867 -2.698213 -10.886654 0.111226 -1.141119 33.606399 -1.191500 0.253700 8.352300 -10.730819 -3.091244 0.391665 -71.857668 16.179393 42.788648 51.698668 -52.830336 -25.747852 0.489688 0.752564 -4.080505 2.612142 25.035739 0.852800 -7.125000 0.000000 0.000000 -27.670400 52.116200 -5.173800 12.023708 6.558214 1.210324 74.308485 -9.194425 41.581917 -23.625511 27.921247 -4.678456 0.186456 0.610272 1.614600 7.618543 4.748479 0.539600 7.125000 0.000000 0.000000 25.039000 -25.547600 13.013400 
0.067579 18.458199 0.887659 -2.734036 8.716154 10.403714 -1.301793 7.316690 3.820375 -8.036844 -24.805488 -11.467356 -1.012948 4.111222 15.542481 -5.937157 19.622028 6.679432 1.848700 -8.543500 -24.377500 0.318125 -7.724156 4.812925 19.338493 20.450817 -9.865606 2.225271 -2.590761 14.042754 4.970432 -22.320802 -20.147323 -2.028900 -8.926000 25.564200 0.837964 2.520413 -8.367249 -0.148594 2.904242 8.535323 -0.318390 2.130534 -4.484883 -1.579546 -2.715589 -10.911050 0.130281 -1.190134 33.625113 -1.213100 0.243900 8.356300 -10.706786 -3.084137 0.395051 -71.785576 16.130085 42.810818 51.569865 -52.779871 -25.642325 0.487353 0.752493 -4.050281 2.580819 24.993713 0.839600 -7.125000 0.000000 0.000000 -27.670800 52.073700 -5.143700 12.050104 6.561533 1.209963 74.392190 -9.229074 41.527274 -23.718600 28.033746 -4.721920 0.193980 0.616576 1.681384 7.749939 4.755425 0.548700 7.125000 0.000000 0.000000 25.124000 -25.543000 13.070300 
